<mxfile host="app.diagrams.net" agent="Mozilla/5.0 (Macintosh; Intel Mac OS X 10_15_7) AppleWebKit/537.36 (KHTML, like Gecko) Chrome/130.0.0.0 Safari/537.36" version="24.8.4">
  <diagram name="Page-1" id="e51Pa1CaD7rWx_zwFcNX">
    <mxGraphModel dx="2850" dy="1270" grid="1" gridSize="10" guides="1" tooltips="1" connect="1" arrows="1" fold="1" page="1" pageScale="1" pageWidth="850" pageHeight="1100" math="0" shadow="0">
      <root>
        <mxCell id="0" />
        <mxCell id="1" parent="0" />
        <mxCell id="B1IepOVE_KF47b711pVg-21" value="" style="rounded=0;whiteSpace=wrap;html=1;strokeColor=default;strokeWidth=3;fillColor=none;" vertex="1" parent="1">
          <mxGeometry y="30" width="820" height="740" as="geometry" />
        </mxCell>
        <object placeholders="1" c4Name="Web Browser" c4Type="Container" c4Technology="Front End Tech" c4Description="End users can browse and shop for products." label="&lt;font style=&quot;font-size: 14px;&quot;&gt;&lt;b style=&quot;font-size: 14px;&quot;&gt;%c4Name%&lt;/b&gt;&lt;/font&gt;&lt;div style=&quot;font-size: 14px;&quot;&gt;[%c4Type%:&amp;nbsp;%c4Technology%]&lt;/div&gt;&lt;br style=&quot;font-size: 14px;&quot;&gt;&lt;div style=&quot;font-size: 14px;&quot;&gt;&lt;font style=&quot;font-size: 14px;&quot;&gt;&lt;font style=&quot;font-size: 14px;&quot; color=&quot;#E6E6E6&quot;&gt;%c4Description%&lt;/font&gt;&lt;/font&gt;&lt;/div&gt;" id="B1IepOVE_KF47b711pVg-1">
          <mxCell style="shape=mxgraph.c4.webBrowserContainer2;whiteSpace=wrap;html=1;boundedLbl=1;rounded=0;labelBackgroundColor=none;strokeColor=#118ACD;fillColor=#23A2D9;strokeColor=#118ACD;strokeColor2=#0E7DAD;fontSize=14;fontColor=#ffffff;align=center;metaEdit=1;points=[[0.5,0,0],[1,0.25,0],[1,0.5,0],[1,0.75,0],[0.5,1,0],[0,0.75,0],[0,0.5,0],[0,0.25,0]];resizable=0;" vertex="1" parent="1">
            <mxGeometry x="10" y="60" width="240" height="160" as="geometry" />
          </mxCell>
        </object>
        <object placeholders="1" c4Name="Mobile App" c4Type="Container" c4Technology="Mobile Front End Tech" c4Description="Front-end that allows users to access the shopping store via mobile devices." label="&lt;font style=&quot;font-size: 14px;&quot;&gt;&lt;b style=&quot;font-size: 14px;&quot;&gt;%c4Name%&lt;/b&gt;&lt;/font&gt;&lt;div style=&quot;font-size: 14px;&quot;&gt;[%c4Type%: %c4Technology%]&lt;/div&gt;&lt;br style=&quot;font-size: 14px;&quot;&gt;&lt;div style=&quot;font-size: 14px;&quot;&gt;&lt;font style=&quot;font-size: 14px;&quot;&gt;&lt;font color=&quot;#E6E6E6&quot; style=&quot;font-size: 14px;&quot;&gt;%c4Description%&lt;/font&gt;&lt;/font&gt;&lt;/div&gt;" id="B1IepOVE_KF47b711pVg-3">
          <mxCell style="rounded=1;whiteSpace=wrap;html=1;fontSize=14;labelBackgroundColor=none;fillColor=#23A2D9;fontColor=#ffffff;align=center;arcSize=10;strokeColor=#0E7DAD;metaEdit=1;resizable=0;points=[[0.25,0,0],[0.5,0,0],[0.75,0,0],[1,0.25,0],[1,0.5,0],[1,0.75,0],[0.75,1,0],[0.5,1,0],[0.25,1,0],[0,0.75,0],[0,0.5,0],[0,0.25,0]];" vertex="1" parent="1">
            <mxGeometry x="20" y="260" width="240" height="120" as="geometry" />
          </mxCell>
        </object>
        <object placeholders="1" c4Name="Application Server" c4Type="Container" c4Technology="Back-end Server Tech" c4Description="Handles business logic, processes user requests, and communicates with other containers like the Database, Payment Gateway, and Email Service." label="&lt;font style=&quot;font-size: 13px;&quot;&gt;&lt;b style=&quot;font-size: 13px;&quot;&gt;%c4Name%&lt;/b&gt;&lt;/font&gt;&lt;div style=&quot;font-size: 13px;&quot;&gt;[%c4Type%: %c4Technology%]&lt;/div&gt;&lt;br style=&quot;font-size: 13px;&quot;&gt;&lt;div style=&quot;font-size: 13px;&quot;&gt;&lt;font style=&quot;font-size: 13px;&quot;&gt;&lt;font style=&quot;font-size: 13px;&quot; color=&quot;#E6E6E6&quot;&gt;%c4Description%&lt;/font&gt;&lt;/font&gt;&lt;/div&gt;" id="B1IepOVE_KF47b711pVg-4">
          <mxCell style="rounded=1;whiteSpace=wrap;html=1;fontSize=13;labelBackgroundColor=none;fillColor=#23A2D9;fontColor=#ffffff;align=center;arcSize=10;strokeColor=#0E7DAD;metaEdit=1;resizable=0;points=[[0.25,0,0],[0.5,0,0],[0.75,0,0],[1,0.25,0],[1,0.5,0],[1,0.75,0],[0.75,1,0],[0.5,1,0],[0.25,1,0],[0,0.75,0],[0,0.5,0],[0,0.25,0]];" vertex="1" parent="1">
            <mxGeometry x="440" y="300" width="240" height="120" as="geometry" />
          </mxCell>
        </object>
        <object placeholders="1" c4Name="Data Base" c4Type="Container" c4Technology="Database Tech" c4Description="Central storage for all system data, product information, customer data, orders, and shopping history." label="&lt;font style=&quot;font-size: 13px;&quot;&gt;&lt;b style=&quot;font-size: 13px;&quot;&gt;%c4Name%&lt;/b&gt;&lt;/font&gt;&lt;div style=&quot;font-size: 13px;&quot;&gt;[%c4Type%:&amp;nbsp;%c4Technology%]&lt;/div&gt;&lt;br style=&quot;font-size: 13px;&quot;&gt;&lt;div style=&quot;font-size: 13px;&quot;&gt;&lt;font style=&quot;font-size: 13px;&quot;&gt;&lt;font color=&quot;#E6E6E6&quot; style=&quot;font-size: 13px;&quot;&gt;%c4Description%&lt;/font&gt;&lt;/font&gt;&lt;/div&gt;" id="B1IepOVE_KF47b711pVg-5">
          <mxCell style="shape=cylinder3;size=15;whiteSpace=wrap;html=1;boundedLbl=1;rounded=0;labelBackgroundColor=none;fillColor=#23A2D9;fontSize=13;fontColor=#ffffff;align=center;strokeColor=#0E7DAD;metaEdit=1;points=[[0.5,0,0],[1,0.25,0],[1,0.5,0],[1,0.75,0],[0.5,1,0],[0,0.75,0],[0,0.5,0],[0,0.25,0]];resizable=0;" vertex="1" parent="1">
            <mxGeometry x="425" y="630" width="240" height="120" as="geometry" />
          </mxCell>
        </object>
        <object placeholders="1" c4Name="Payment Gateway" c4Type="Software System" c4Description="Payment Gateway for secure payment transactions." label="&lt;font style=&quot;font-size: 14px;&quot;&gt;&lt;b style=&quot;font-size: 14px;&quot;&gt;%c4Name%&lt;/b&gt;&lt;/font&gt;&lt;div style=&quot;font-size: 14px;&quot;&gt;[%c4Type%]&lt;/div&gt;&lt;br style=&quot;font-size: 14px;&quot;&gt;&lt;div style=&quot;font-size: 14px;&quot;&gt;&lt;font style=&quot;font-size: 14px;&quot;&gt;&lt;font style=&quot;font-size: 14px;&quot; color=&quot;#cccccc&quot;&gt;%c4Description%&lt;/font&gt;&lt;/font&gt;&lt;/div&gt;" id="B1IepOVE_KF47b711pVg-9">
          <mxCell style="rounded=1;whiteSpace=wrap;html=1;labelBackgroundColor=none;fillColor=#8C8496;fontColor=#ffffff;align=center;arcSize=10;strokeColor=#736782;metaEdit=1;resizable=0;points=[[0.25,0,0],[0.5,0,0],[0.75,0,0],[1,0.25,0],[1,0.5,0],[1,0.75,0],[0.75,1,0],[0.5,1,0],[0.25,1,0],[0,0.75,0],[0,0.5,0],[0,0.25,0]];fontSize=14;" vertex="1" parent="1">
            <mxGeometry x="920" y="70" width="240" height="120" as="geometry" />
          </mxCell>
        </object>
        <object placeholders="1" c4Name="Delivery System" c4Type="Software System" c4Description="Sends order details for handling shipping and tracking." label="&lt;font style=&quot;font-size: 14px;&quot;&gt;&lt;b style=&quot;font-size: 14px;&quot;&gt;%c4Name%&lt;/b&gt;&lt;/font&gt;&lt;div style=&quot;font-size: 14px;&quot;&gt;[%c4Type%]&lt;/div&gt;&lt;br style=&quot;font-size: 14px;&quot;&gt;&lt;div style=&quot;font-size: 14px;&quot;&gt;&lt;font style=&quot;font-size: 14px;&quot;&gt;&lt;font style=&quot;font-size: 14px;&quot; color=&quot;#cccccc&quot;&gt;%c4Description%&lt;/font&gt;&lt;/font&gt;&lt;/div&gt;" id="B1IepOVE_KF47b711pVg-10">
          <mxCell style="rounded=1;whiteSpace=wrap;html=1;labelBackgroundColor=none;fillColor=#8C8496;fontColor=#ffffff;align=center;arcSize=10;strokeColor=#736782;metaEdit=1;resizable=0;points=[[0.25,0,0],[0.5,0,0],[0.75,0,0],[1,0.25,0],[1,0.5,0],[1,0.75,0],[0.75,1,0],[0.5,1,0],[0.25,1,0],[0,0.75,0],[0,0.5,0],[0,0.25,0]];fontSize=14;" vertex="1" parent="1">
            <mxGeometry x="920" y="260" width="240" height="120" as="geometry" />
          </mxCell>
        </object>
        <object placeholders="1" c4Name="Email Service" c4Type="Software System" c4Description="To send order confirmations and other notifications to customers." label="&lt;font style=&quot;font-size: 14px;&quot;&gt;&lt;b style=&quot;font-size: 14px;&quot;&gt;%c4Name%&lt;/b&gt;&lt;/font&gt;&lt;div style=&quot;font-size: 14px;&quot;&gt;[%c4Type%]&lt;/div&gt;&lt;br style=&quot;font-size: 14px;&quot;&gt;&lt;div style=&quot;font-size: 14px;&quot;&gt;&lt;font style=&quot;font-size: 14px;&quot;&gt;&lt;font style=&quot;font-size: 14px;&quot; color=&quot;#cccccc&quot;&gt;%c4Description%&lt;/font&gt;&lt;/font&gt;&lt;/div&gt;" id="B1IepOVE_KF47b711pVg-11">
          <mxCell style="rounded=1;whiteSpace=wrap;html=1;labelBackgroundColor=none;fillColor=#8C8496;fontColor=#ffffff;align=center;arcSize=10;strokeColor=#736782;metaEdit=1;resizable=0;points=[[0.25,0,0],[0.5,0,0],[0.75,0,0],[1,0.25,0],[1,0.5,0],[1,0.75,0],[0.75,1,0],[0.5,1,0],[0.25,1,0],[0,0.75,0],[0,0.5,0],[0,0.25,0]];fontSize=14;" vertex="1" parent="1">
            <mxGeometry x="920" y="540" width="240" height="120" as="geometry" />
          </mxCell>
        </object>
        <object placeholders="1" c4Type="Relationship" c4Description="Send Request To" label="&lt;div style=&quot;text-align: left; font-size: 14px;&quot;&gt;&lt;div style=&quot;text-align: center; font-size: 14px;&quot;&gt;&lt;b style=&quot;font-size: 14px;&quot;&gt;%c4Description%&lt;/b&gt;&lt;/div&gt;&lt;/div&gt;" id="B1IepOVE_KF47b711pVg-12">
          <mxCell style="endArrow=blockThin;html=1;fontSize=14;fontColor=#404040;strokeWidth=3;endFill=1;strokeColor=#828282;elbow=vertical;metaEdit=1;jumpStyle=arc;jumpSize=16;rounded=0;edgeStyle=orthogonalEdgeStyle;entryX=0.171;entryY=-0.025;entryDx=0;entryDy=0;entryPerimeter=0;dashed=1;" edge="1" parent="1" target="B1IepOVE_KF47b711pVg-4">
            <mxGeometry width="240" relative="1" as="geometry">
              <mxPoint x="240" y="139.5" as="sourcePoint" />
              <mxPoint x="480" y="139.5" as="targetPoint" />
            </mxGeometry>
          </mxCell>
        </object>
        <object placeholders="1" c4Type="Relationship" c4Description="Send Request To" label="&lt;div style=&quot;text-align: left; font-size: 14px;&quot;&gt;&lt;div style=&quot;text-align: center; font-size: 14px;&quot;&gt;&lt;b style=&quot;font-size: 14px;&quot;&gt;%c4Description%&lt;/b&gt;&lt;/div&gt;&lt;/div&gt;" id="B1IepOVE_KF47b711pVg-13">
          <mxCell style="endArrow=blockThin;html=1;fontSize=14;fontColor=#404040;strokeWidth=3;endFill=1;strokeColor=#828282;elbow=vertical;metaEdit=1;endSize=14;startSize=14;jumpStyle=arc;jumpSize=16;rounded=0;edgeStyle=orthogonalEdgeStyle;entryX=0.017;entryY=0.175;entryDx=0;entryDy=0;entryPerimeter=0;dashed=1;" edge="1" parent="1" target="B1IepOVE_KF47b711pVg-4">
            <mxGeometry width="240" relative="1" as="geometry">
              <mxPoint x="260" y="320" as="sourcePoint" />
              <mxPoint x="501" y="477.5" as="targetPoint" />
            </mxGeometry>
          </mxCell>
        </object>
        <object placeholders="1" c4Type="Relationship" c4Description="Reads To" label="&lt;div style=&quot;text-align: left; font-size: 14px;&quot;&gt;&lt;div style=&quot;text-align: center; font-size: 14px;&quot;&gt;&lt;b style=&quot;font-size: 14px;&quot;&gt;%c4Description%&lt;/b&gt;&lt;/div&gt;&lt;/div&gt;" id="B1IepOVE_KF47b711pVg-14">
          <mxCell style="endArrow=blockThin;html=1;fontSize=14;fontColor=#404040;strokeWidth=3;endFill=1;strokeColor=#828282;elbow=vertical;metaEdit=1;endSize=14;startSize=14;jumpStyle=arc;jumpSize=16;rounded=0;edgeStyle=orthogonalEdgeStyle;entryX=0.65;entryY=0;entryDx=0;entryDy=0;entryPerimeter=0;exitX=0.6;exitY=1.025;exitDx=0;exitDy=0;exitPerimeter=0;dashed=1;" edge="1" parent="1" source="B1IepOVE_KF47b711pVg-4" target="B1IepOVE_KF47b711pVg-5">
            <mxGeometry width="240" relative="1" as="geometry">
              <mxPoint x="350" y="500" as="sourcePoint" />
              <mxPoint x="590" y="500" as="targetPoint" />
              <Array as="points">
                <mxPoint x="584" y="525" />
                <mxPoint x="581" y="525" />
              </Array>
            </mxGeometry>
          </mxCell>
        </object>
        <object placeholders="1" c4Type="Relationship" c4Description="Processes Online Payments" label="&lt;div style=&quot;text-align: left; font-size: 14px;&quot;&gt;&lt;div style=&quot;text-align: center; font-size: 14px;&quot;&gt;&lt;b style=&quot;font-size: 14px;&quot;&gt;%c4Description%&lt;/b&gt;&lt;/div&gt;&lt;/div&gt;" id="B1IepOVE_KF47b711pVg-15">
          <mxCell style="endArrow=blockThin;html=1;fontSize=14;fontColor=#404040;strokeWidth=3;endFill=1;strokeColor=#828282;elbow=vertical;metaEdit=1;endSize=14;startSize=14;jumpStyle=arc;jumpSize=16;rounded=0;edgeStyle=orthogonalEdgeStyle;entryX=0.75;entryY=0;entryDx=0;entryDy=0;entryPerimeter=0;exitX=0;exitY=0.5;exitDx=0;exitDy=0;exitPerimeter=0;dashed=1;" edge="1" parent="1" source="B1IepOVE_KF47b711pVg-9">
            <mxGeometry width="240" relative="1" as="geometry">
              <mxPoint x="820" y="130" as="sourcePoint" />
              <mxPoint x="630" y="300" as="targetPoint" />
            </mxGeometry>
          </mxCell>
        </object>
        <object placeholders="1" c4Type="Relationship" c4Description="Sends Shipping Requests To" label="&lt;div style=&quot;text-align: left; font-size: 14px;&quot;&gt;&lt;div style=&quot;text-align: center; font-size: 14px;&quot;&gt;&lt;b style=&quot;font-size: 14px;&quot;&gt;%c4Description%&lt;/b&gt;&lt;/div&gt;&lt;/div&gt;" id="B1IepOVE_KF47b711pVg-16">
          <mxCell style="endArrow=blockThin;html=1;fontSize=14;fontColor=#404040;strokeWidth=3;endFill=1;strokeColor=#828282;elbow=vertical;metaEdit=1;endSize=14;startSize=14;jumpStyle=arc;jumpSize=16;rounded=0;edgeStyle=orthogonalEdgeStyle;dashed=1;exitX=0;exitY=0.5;exitDx=0;exitDy=0;exitPerimeter=0;" edge="1" parent="1" source="B1IepOVE_KF47b711pVg-10">
            <mxGeometry x="-0.1687" width="240" relative="1" as="geometry">
              <mxPoint x="880" y="319.5" as="sourcePoint" />
              <mxPoint x="680" y="320" as="targetPoint" />
              <mxPoint as="offset" />
            </mxGeometry>
          </mxCell>
        </object>
        <object placeholders="1" c4Type="Relationship" c4Description="Sends confirmation emails via" label="&lt;div style=&quot;text-align: left; font-size: 14px;&quot;&gt;&lt;div style=&quot;text-align: center; font-size: 14px;&quot;&gt;&lt;b style=&quot;font-size: 14px;&quot;&gt;%c4Description%&lt;/b&gt;&lt;/div&gt;&lt;/div&gt;" id="B1IepOVE_KF47b711pVg-17">
          <mxCell style="endArrow=blockThin;html=1;fontSize=14;fontColor=#404040;strokeWidth=3;endFill=1;strokeColor=#828282;elbow=vertical;metaEdit=1;endSize=14;startSize=14;jumpStyle=arc;jumpSize=16;rounded=0;edgeStyle=orthogonalEdgeStyle;entryX=0.629;entryY=1.025;entryDx=0;entryDy=0;entryPerimeter=0;exitX=0.004;exitY=0.317;exitDx=0;exitDy=0;exitPerimeter=0;dashed=1;" edge="1" parent="1" source="B1IepOVE_KF47b711pVg-11">
            <mxGeometry x="-0.1288" y="-8" width="240" relative="1" as="geometry">
              <mxPoint x="829.04" y="577" as="sourcePoint" />
              <mxPoint x="640" y="420.0000000000002" as="targetPoint" />
              <mxPoint as="offset" />
            </mxGeometry>
          </mxCell>
        </object>
        <object placeholders="1" c4Type="Relationship" c4Description="Writes To" label="&lt;div style=&quot;text-align: left; font-size: 14px;&quot;&gt;&lt;div style=&quot;text-align: center; font-size: 14px;&quot;&gt;&lt;b style=&quot;font-size: 14px;&quot;&gt;%c4Description%&lt;/b&gt;&lt;/div&gt;&lt;/div&gt;" id="B1IepOVE_KF47b711pVg-18">
          <mxCell style="endArrow=blockThin;html=1;fontSize=14;fontColor=#404040;strokeWidth=3;endFill=1;strokeColor=#828282;elbow=vertical;metaEdit=1;endSize=14;startSize=14;jumpStyle=arc;jumpSize=16;rounded=0;edgeStyle=orthogonalEdgeStyle;exitX=0.363;exitY=1.008;exitDx=0;exitDy=0;exitPerimeter=0;entryX=0.429;entryY=-0.008;entryDx=0;entryDy=0;entryPerimeter=0;dashed=1;" edge="1" parent="1" source="B1IepOVE_KF47b711pVg-4" target="B1IepOVE_KF47b711pVg-5">
            <mxGeometry width="240" relative="1" as="geometry">
              <mxPoint x="230" y="410" as="sourcePoint" />
              <mxPoint x="540" y="510" as="targetPoint" />
              <Array as="points">
                <mxPoint x="527" y="498" />
                <mxPoint x="528" y="510" />
              </Array>
            </mxGeometry>
          </mxCell>
        </object>
        <mxCell id="B1IepOVE_KF47b711pVg-25" value="&lt;b&gt;&lt;font style=&quot;font-size: 16px;&quot;&gt;Online Shopping System&lt;/font&gt;&lt;/b&gt;" style="text;html=1;align=center;verticalAlign=middle;whiteSpace=wrap;rounded=0;" vertex="1" parent="1">
          <mxGeometry x="280" y="790" width="270" height="60" as="geometry" />
        </mxCell>
        <object placeholders="1" c4Name="Customer" c4Type="Person" c4Description="Person buying from online store.&#xa;" label="&lt;font style=&quot;font-size: 14px;&quot;&gt;&lt;b style=&quot;font-size: 14px;&quot;&gt;%c4Name%&lt;/b&gt;&lt;/font&gt;&lt;div style=&quot;font-size: 14px;&quot;&gt;[%c4Type%]&lt;/div&gt;&lt;br style=&quot;font-size: 14px;&quot;&gt;&lt;div style=&quot;font-size: 14px;&quot;&gt;&lt;font style=&quot;font-size: 14px;&quot;&gt;&lt;font color=&quot;#cccccc&quot; style=&quot;font-size: 14px;&quot;&gt;%c4Description%&lt;/font&gt;&lt;/font&gt;&lt;/div&gt;" id="B1IepOVE_KF47b711pVg-26">
          <mxCell style="html=1;fontSize=14;dashed=0;whiteSpace=wrap;fillColor=#083F75;strokeColor=#06315C;fontColor=#ffffff;shape=mxgraph.c4.person2;align=center;metaEdit=1;points=[[0.5,0,0],[1,0.5,0],[1,0.75,0],[0.75,1,0],[0.5,1,0],[0.25,1,0],[0,0.75,0],[0,0.5,0]];resizable=0;" vertex="1" parent="1">
            <mxGeometry x="-440" y="30" width="200" height="180" as="geometry" />
          </mxCell>
        </object>
        <object placeholders="1" c4Name="Support" c4Type="Person" c4Description="Customer service or support team for assisting customers with online shopping experience." label="&lt;font style=&quot;font-size: 14px;&quot;&gt;&lt;b style=&quot;font-size: 14px;&quot;&gt;%c4Name%&lt;/b&gt;&lt;/font&gt;&lt;div style=&quot;font-size: 14px;&quot;&gt;[%c4Type%]&lt;/div&gt;&lt;br style=&quot;font-size: 14px;&quot;&gt;&lt;div style=&quot;font-size: 14px;&quot;&gt;&lt;font style=&quot;font-size: 14px;&quot;&gt;&lt;font color=&quot;#cccccc&quot; style=&quot;font-size: 14px;&quot;&gt;%c4Description%&lt;/font&gt;&lt;/font&gt;&lt;/div&gt;" id="B1IepOVE_KF47b711pVg-27">
          <mxCell style="html=1;fontSize=14;dashed=0;whiteSpace=wrap;fillColor=#083F75;strokeColor=#06315C;fontColor=#ffffff;shape=mxgraph.c4.person2;align=center;metaEdit=1;points=[[0.5,0,0],[1,0.5,0],[1,0.75,0],[0.75,1,0],[0.5,1,0],[0.25,1,0],[0,0.75,0],[0,0.5,0]];resizable=0;" vertex="1" parent="1">
            <mxGeometry x="-440" y="310" width="200" height="180" as="geometry" />
          </mxCell>
        </object>
        <object placeholders="1" c4Name="Admin" c4Type="Person" c4Description="Person that administers the online shopping website.&#xa;" label="&lt;font style=&quot;font-size: 14px;&quot;&gt;&lt;b style=&quot;font-size: 14px;&quot;&gt;%c4Name%&lt;/b&gt;&lt;/font&gt;&lt;div style=&quot;font-size: 14px;&quot;&gt;[%c4Type%]&lt;/div&gt;&lt;br style=&quot;font-size: 14px;&quot;&gt;&lt;div style=&quot;font-size: 14px;&quot;&gt;&lt;font style=&quot;font-size: 14px;&quot;&gt;&lt;font color=&quot;#cccccc&quot; style=&quot;font-size: 14px;&quot;&gt;%c4Description%&lt;/font&gt;&lt;/font&gt;&lt;/div&gt;" id="B1IepOVE_KF47b711pVg-28">
          <mxCell style="html=1;fontSize=14;dashed=0;whiteSpace=wrap;fillColor=#083F75;strokeColor=#06315C;fontColor=#ffffff;shape=mxgraph.c4.person2;align=center;metaEdit=1;points=[[0.5,0,0],[1,0.5,0],[1,0.75,0],[0.75,1,0],[0.5,1,0],[0.25,1,0],[0,0.75,0],[0,0.5,0]];resizable=0;" vertex="1" parent="1">
            <mxGeometry x="-440" y="570" width="200" height="180" as="geometry" />
          </mxCell>
        </object>
        <object placeholders="1" c4Type="Relationship" c4Description="Uses" label="&lt;div style=&quot;text-align: left; font-size: 14px;&quot;&gt;&lt;div style=&quot;text-align: center; font-size: 14px;&quot;&gt;&lt;b style=&quot;font-size: 14px;&quot;&gt;%c4Description%&lt;/b&gt;&lt;/div&gt;&lt;/div&gt;" id="B1IepOVE_KF47b711pVg-29">
          <mxCell style="endArrow=blockThin;html=1;fontSize=14;fontColor=#404040;strokeWidth=3;endFill=1;strokeColor=#828282;elbow=vertical;metaEdit=1;endSize=14;startSize=14;jumpStyle=arc;jumpSize=16;rounded=0;edgeStyle=orthogonalEdgeStyle;entryX=0;entryY=0.5;entryDx=0;entryDy=0;entryPerimeter=0;dashed=1;" edge="1" parent="1" target="B1IepOVE_KF47b711pVg-1">
            <mxGeometry x="0.0068" width="240" relative="1" as="geometry">
              <mxPoint x="-240" y="140" as="sourcePoint" />
              <mxPoint y="140" as="targetPoint" />
              <mxPoint as="offset" />
            </mxGeometry>
          </mxCell>
        </object>
        <object placeholders="1" c4Type="Relationship" c4Description="Assists With" label="&lt;div style=&quot;text-align: left; font-size: 14px;&quot;&gt;&lt;div style=&quot;text-align: center; font-size: 14px;&quot;&gt;&lt;b style=&quot;font-size: 14px;&quot;&gt;%c4Description%&lt;/b&gt;&lt;/div&gt;&lt;/div&gt;" id="B1IepOVE_KF47b711pVg-30">
          <mxCell style="endArrow=blockThin;html=1;fontSize=14;fontColor=#404040;strokeWidth=3;endFill=1;strokeColor=#828282;elbow=vertical;metaEdit=1;endSize=14;startSize=14;jumpStyle=arc;jumpSize=16;rounded=0;edgeStyle=orthogonalEdgeStyle;entryX=0.014;entryY=0.964;entryDx=0;entryDy=0;entryPerimeter=0;exitX=1.016;exitY=0.619;exitDx=0;exitDy=0;exitPerimeter=0;dashed=1;" edge="1" parent="1" source="B1IepOVE_KF47b711pVg-28">
            <mxGeometry width="240" relative="1" as="geometry">
              <mxPoint x="-220" y="686.61" as="sourcePoint" />
              <mxPoint x="463.3600000000001" y="412.99999999999983" as="targetPoint" />
              <Array as="points">
                <mxPoint x="-220" y="681" />
                <mxPoint x="-220" y="620" />
                <mxPoint x="463" y="620" />
              </Array>
            </mxGeometry>
          </mxCell>
        </object>
        <object placeholders="1" c4Type="Relationship" c4Description="Uses" label="&lt;div style=&quot;text-align: left; font-size: 14px;&quot;&gt;&lt;div style=&quot;text-align: center; font-size: 14px;&quot;&gt;&lt;b style=&quot;font-size: 14px;&quot;&gt;%c4Description%&lt;/b&gt;&lt;/div&gt;&lt;/div&gt;" id="B1IepOVE_KF47b711pVg-31">
          <mxCell style="endArrow=blockThin;html=1;fontSize=14;fontColor=#404040;strokeWidth=3;endFill=1;strokeColor=#828282;elbow=vertical;metaEdit=1;endSize=14;startSize=14;jumpStyle=arc;jumpSize=16;rounded=0;edgeStyle=orthogonalEdgeStyle;entryX=0.002;entryY=0.417;entryDx=0;entryDy=0;entryPerimeter=0;dashed=1;" edge="1" parent="1" target="B1IepOVE_KF47b711pVg-3">
            <mxGeometry width="240" relative="1" as="geometry">
              <mxPoint x="-240" y="160" as="sourcePoint" />
              <mxPoint x="10" y="160" as="targetPoint" />
            </mxGeometry>
          </mxCell>
        </object>
        <object placeholders="1" c4Type="Relationship" c4Description="Manages" label="&lt;div style=&quot;text-align: left; font-size: 14px;&quot;&gt;&lt;div style=&quot;text-align: center; font-size: 14px;&quot;&gt;&lt;b style=&quot;font-size: 14px;&quot;&gt;%c4Description%&lt;/b&gt;&lt;/div&gt;&lt;/div&gt;" id="B1IepOVE_KF47b711pVg-32">
          <mxCell style="endArrow=blockThin;html=1;fontSize=14;fontColor=#404040;strokeWidth=3;endFill=1;strokeColor=#828282;elbow=vertical;metaEdit=1;endSize=14;startSize=14;jumpStyle=arc;jumpSize=16;rounded=0;edgeStyle=orthogonalEdgeStyle;entryX=0;entryY=0.75;entryDx=0;entryDy=0;entryPerimeter=0;dashed=1;" edge="1" parent="1" target="B1IepOVE_KF47b711pVg-4">
            <mxGeometry width="240" relative="1" as="geometry">
              <mxPoint x="-240" y="430" as="sourcePoint" />
              <mxPoint x="10" y="430" as="targetPoint" />
            </mxGeometry>
          </mxCell>
        </object>
      </root>
    </mxGraphModel>
  </diagram>
</mxfile>
